# xmcd CD database file
#
# Track frame offsets:
#	150
#	14752
#	28536
#	41883
#
# Disc length: 749 seconds
#
# Revision: 1
# Processed by: cddbd v1.5.2PL0 Copyright (c) Steve Scherf et al.
# Submitted via: CDex 1.70beta2
#
DISCID=2f02eb04
DTITLE=The BossHoss - Everything Counts (Single)
DYEAR=2007
DGENRE=Country
TTITLE0=Everything Counts (King Calavera Mix)
TTITLE1=Truck 'n' Roll Rules
TTITLE2=Ride on
TTITLE3=Everything Counts (Whiplash Mix)
EXTD=YEAR: 2007
EXTT0=
EXTT1=
EXTT2=
EXTT3=
PLAYORDER=
